<svg width="283" height="70" viewBox="0 0 283 70" fill="none" xmlns="http://www.w3.org/2000/svg">
<path fill-rule="evenodd" clip-rule="evenodd" d="M24.23 14.3323C24.23 14.3323 21.3555 26.2866 31.4777 31.0103C29.8369 29.4443 30.2632 26.9761 30.2632 26.9761C30.2632 26.9761 32.4531 28.2005 32.6404 30.4561C35.347 19.636 24.23 14.3323 24.23 14.3323Z" fill="#00A650"/>
<path fill-rule="evenodd" clip-rule="evenodd" d="M13.5716 5.05883C13.5716 5.05883 13.1195 15.402 22.2533 17.6769C20.6449 16.6458 20.5997 14.5385 20.5997 14.5385C20.5997 14.5385 22.6086 15.1958 23.1254 17.0389C23.6099 7.66235 13.5716 5.05883 13.5716 5.05883Z" fill="#00A650"/>
<path fill-rule="evenodd" clip-rule="evenodd" d="M17.6993 16.8327C17.6993 16.8327 17.4086 23.5284 23.3256 25.0041C22.2856 24.3339 22.2533 22.9742 22.2533 22.9742C22.2533 22.9742 23.5517 23.3995 23.8876 24.5917C24.2041 18.5147 17.6993 16.8327 17.6993 16.8327Z" fill="#00A650"/>
<path fill-rule="evenodd" clip-rule="evenodd" d="M10.8651 10.2723C10.8651 10.2723 10.6648 14.8671 14.7214 15.8789C14.0044 15.4214 13.985 14.4869 13.985 14.4869C13.985 14.4869 14.8765 14.7769 15.109 15.5954C15.3286 11.4259 10.8651 10.2723 10.8651 10.2723Z" fill="#00A650"/>
<path fill-rule="evenodd" clip-rule="evenodd" d="M5.74905 15.5438C5.74905 15.5438 8.30705 25.1072 17.2988 24.5724C15.5353 24.089 14.8894 22.1815 14.8894 22.1815C14.8894 22.1815 16.9048 22.2073 17.906 23.7346C15.6581 15.0347 5.74905 15.5438 5.74905 15.5438Z" fill="#00A650"/>
<path fill-rule="evenodd" clip-rule="evenodd" d="M3.11999 20.912C3.11999 20.912 5.29042 24.9719 9.30183 23.7797C8.45562 23.7475 7.95823 22.9548 7.95823 22.9548C7.95823 22.9548 8.8755 22.7551 9.48916 23.3415C7.55128 19.6489 3.11999 20.912 3.11999 20.912Z" fill="#00A650"/>
<path fill-rule="evenodd" clip-rule="evenodd" d="M0.00645975 25.2039C0.00645975 25.2039 4.89638 34.342 13.9269 31.6676C12.0149 31.5967 10.8974 29.8052 10.8974 29.8052C10.8974 29.8052 12.9644 29.3541 14.3468 30.6752C9.98009 22.3426 0 25.2104 0 25.2104L0.00645975 25.2039Z" fill="#00A650"/>
<path fill-rule="evenodd" clip-rule="evenodd" d="M0.684719 32.0607C0.684719 32.0607 3.74011 35.502 7.36395 33.4205C6.53066 33.588 5.86532 32.9243 5.86532 32.9243C5.86532 32.9243 6.71153 32.5183 7.44792 32.9436C4.70259 29.7987 0.691177 32.0607 0.691177 32.0607H0.684719Z" fill="#00A650"/>
<path fill-rule="evenodd" clip-rule="evenodd" d="M10.4516 33.5494C10.4516 33.5494 14.3468 37.9315 18.9589 35.2765C17.8996 35.4891 17.0469 34.6514 17.0469 34.6514C17.0469 34.6514 18.1257 34.1358 19.0623 34.6771C15.5676 30.6687 10.4516 33.5494 10.4516 33.5494Z" fill="#00A650"/>
<path fill-rule="evenodd" clip-rule="evenodd" d="M1.36944 40.1355C1.36944 40.1355 9.98655 45.9161 16.7045 39.33C14.9798 40.1613 13.1518 39.098 13.1518 39.098C13.1518 39.098 14.7667 37.7318 16.6076 38.2537C8.83674 32.9371 1.36944 40.1355 1.36944 40.1355Z" fill="#00A650"/>
<path fill-rule="evenodd" clip-rule="evenodd" d="M26.1226 2.10086C26.1226 2.10086 22.6151 10.2337 29.2232 14.822C28.2478 13.5074 28.855 11.8125 28.855 11.8125C28.855 11.8125 30.2568 12.9467 30.1147 14.5772C33.3639 7.22413 26.1226 2.10731 26.1226 2.10731V2.10086Z" fill="#00A650"/>
<path fill-rule="evenodd" clip-rule="evenodd" d="M21.4071 3.95039C21.4071 3.95039 19.9925 8.32612 23.6357 10.3754C23.0672 9.74388 23.2998 8.83522 23.2998 8.83522C23.2998 8.83522 24.0814 9.35722 24.0879 10.2014C25.4056 6.24459 21.4136 3.95039 21.4136 3.95039H21.4071Z" fill="#00A650"/>
<path fill-rule="evenodd" clip-rule="evenodd" d="M34.1778 0C34.1778 0 30.4441 4.60772 33.8677 8.75789C33.4801 7.73324 34.1778 6.75369 34.1778 6.75369C34.1778 6.75369 34.8754 7.73968 34.4878 8.75789C37.9114 4.60772 34.1778 0 34.1778 0Z" fill="#00A650"/>
<path fill-rule="evenodd" clip-rule="evenodd" d="M34.1778 11.3034C34.1778 11.3034 29.6625 16.8778 33.8031 21.8915C33.3316 20.6606 34.1778 19.4684 34.1778 19.4684C34.1778 19.4684 35.024 20.6606 34.5524 21.8915C38.693 16.8778 34.1778 11.3034 34.1778 11.3034Z" fill="#00A650"/>
<path fill-rule="evenodd" clip-rule="evenodd" d="M44.5067 14.3323C44.5067 14.3323 47.3812 26.2866 37.259 31.0103C38.8997 29.4443 38.4734 26.9761 38.4734 26.9761C38.4734 26.9761 36.2836 28.2005 36.0963 30.4561C33.3897 19.636 44.5067 14.3323 44.5067 14.3323Z" fill="#00A650"/>
<path fill-rule="evenodd" clip-rule="evenodd" d="M55.165 5.05883C55.165 5.05883 55.6107 15.402 46.4768 17.6769C48.0853 16.6458 48.1305 14.5385 48.1305 14.5385C48.1305 14.5385 46.1216 15.1958 45.6048 17.0389C45.1139 7.66235 55.1586 5.05883 55.1586 5.05883H55.165Z" fill="#00A650"/>
<path fill-rule="evenodd" clip-rule="evenodd" d="M51.0373 16.8327C51.0373 16.8327 51.328 23.5284 45.411 25.0041C46.4575 24.3339 46.4833 22.9742 46.4833 22.9742C46.4833 22.9742 45.1849 23.3995 44.849 24.5917C44.5325 18.5147 51.0373 16.8327 51.0373 16.8327Z" fill="#00A650"/>
<path fill-rule="evenodd" clip-rule="evenodd" d="M57.8716 10.2723C57.8716 10.2723 58.0718 14.8671 54.0152 15.8789C54.7322 15.4214 54.7516 14.4869 54.7516 14.4869C54.7516 14.4869 53.8602 14.7769 53.6341 15.5954C53.4145 11.4259 57.8781 10.2723 57.8781 10.2723H57.8716Z" fill="#00A650"/>
<path fill-rule="evenodd" clip-rule="evenodd" d="M62.9876 15.5438C62.9876 15.5438 60.4231 25.1072 51.4378 24.5724C53.2078 24.089 53.8537 22.1815 53.8537 22.1815C53.8537 22.1815 51.8319 22.2073 50.8306 23.7346C53.0786 15.0347 62.9876 15.5438 62.9876 15.5438Z" fill="#00A650"/>
<path fill-rule="evenodd" clip-rule="evenodd" d="M65.6167 20.912C65.6167 20.912 63.4462 24.9719 59.4348 23.7797C60.2875 23.7475 60.7784 22.9548 60.7784 22.9548C60.7784 22.9548 59.8612 22.7551 59.2475 23.3415C61.1854 19.6489 65.6167 20.912 65.6167 20.912Z" fill="#00A650"/>
<path fill-rule="evenodd" clip-rule="evenodd" d="M68.7302 25.2039C68.7302 25.2039 63.8403 34.342 54.8033 31.6676C56.7153 31.5967 57.8328 29.8052 57.8328 29.8052C57.8328 29.8052 55.7658 29.3541 54.3834 30.6752C58.7501 22.3426 68.7302 25.2104 68.7302 25.2104V25.2039Z" fill="#00A650"/>
<path fill-rule="evenodd" clip-rule="evenodd" d="M68.0519 32.0607C68.0519 32.0607 64.9965 35.502 61.3727 33.4205C62.206 33.588 62.8713 32.9243 62.8713 32.9243C62.8713 32.9243 62.0251 32.5183 61.2887 32.9436C64.0341 29.7987 68.0519 32.0607 68.0519 32.0607Z" fill="#00A650"/>
<path fill-rule="evenodd" clip-rule="evenodd" d="M58.2786 33.5494C58.2786 33.5494 54.3834 37.9315 49.7713 35.2765C50.8306 35.4891 51.6833 34.6514 51.6833 34.6514C51.6833 34.6514 50.6045 34.1358 49.6744 34.6771C53.169 30.6687 58.2786 33.5494 58.2786 33.5494Z" fill="#00A650"/>
<path fill-rule="evenodd" clip-rule="evenodd" d="M67.3672 40.1355C67.3672 40.1355 58.7501 45.9161 52.0321 39.33C53.7568 40.1613 55.5849 39.098 55.5849 39.098C55.5849 39.098 53.97 37.7318 52.129 38.2537C59.8999 32.9371 67.3672 40.1355 67.3672 40.1355Z" fill="#00A650"/>
<path fill-rule="evenodd" clip-rule="evenodd" d="M42.614 2.10086C42.614 2.10086 46.1216 10.2337 39.5134 14.822C40.4823 13.5074 39.8816 11.8125 39.8816 11.8125C39.8816 11.8125 38.4799 12.9467 38.622 14.5772C35.3728 7.22413 42.614 2.10731 42.614 2.10731V2.10086Z" fill="#00A650"/>
<path fill-rule="evenodd" clip-rule="evenodd" d="M47.336 3.95039C47.336 3.95039 48.7506 8.32612 45.1074 10.3754C45.6759 9.74388 45.4433 8.83522 45.4433 8.83522C45.4433 8.83522 44.6617 9.35722 44.6552 10.2014C43.3375 6.24459 47.336 3.95039 47.336 3.95039Z" fill="#00A650"/>
<path fill-rule="evenodd" clip-rule="evenodd" d="M24.8824 38.3633C26.1356 37.9702 27.7698 39.6006 28.5321 42.0044C29.2943 44.4081 28.8873 46.683 27.6342 47.0761C26.3746 47.4692 24.7467 45.8388 23.9845 43.4286C23.2223 41.0184 23.6292 38.75 24.8824 38.3569V38.3633ZM20.5222 53.7073C20.5222 53.7073 31.426 54.0424 33.1248 35.5278C33.1248 35.5278 36.0188 43.6863 30.231 69.1738C27.4662 73.382 34.8237 53.1402 20.5222 53.7138V53.7073Z" fill="#2A2A86"/>
<path fill-rule="evenodd" clip-rule="evenodd" d="M13.5845 26.0675C13.5845 26.0675 18.2484 36.3849 28.2931 34.1229C26.2131 33.9038 25.1279 31.8674 25.1279 31.8674C25.1279 31.8674 27.4146 31.5258 28.8292 33.066C24.6757 23.6637 13.5845 26.061 13.5845 26.061V26.0675Z" fill="#2A2A86"/>
<path fill-rule="evenodd" clip-rule="evenodd" d="M55.1521 26.0675C55.1521 26.0675 50.4818 36.3849 40.4371 34.1229C42.5171 33.9038 43.6023 31.8674 43.6023 31.8674C43.6023 31.8674 41.3156 31.5258 39.9074 33.066C44.061 23.6637 55.1521 26.061 55.1521 26.061V26.0675Z" fill="#2A2A86"/>
<path fill-rule="evenodd" clip-rule="evenodd" d="M43.654 40.5222C42.7561 40.2386 41.5869 41.4115 41.0443 43.1321C40.5017 44.8528 40.7924 46.4768 41.6903 46.7603C42.5882 47.0439 43.7574 45.8774 44.3 44.1503C44.8426 42.4297 44.5519 40.8057 43.654 40.5222ZM46.7675 51.5034C46.7675 51.5034 38.9708 51.7482 37.7499 38.4922C37.7499 38.4922 35.6764 44.3243 39.8235 62.5683C41.8001 65.5779 36.5355 51.0974 46.7675 51.5034Z" fill="#2A2A86"/>
<path fill-rule="evenodd" clip-rule="evenodd" d="M103.748 47.2372C104.2 47.2372 104.575 47.0825 104.865 46.7668C105.162 46.4574 105.311 46.0901 105.311 45.6712V16.6587H116.066C116.518 16.6587 116.899 16.504 117.216 16.1882C117.532 15.8725 117.688 15.4987 117.688 15.0412V7.95879C117.688 7.54636 117.532 7.17903 117.216 6.8697C116.906 6.55392 116.518 6.39926 116.066 6.39926H79.9376C79.4854 6.39926 79.1108 6.55392 78.8136 6.8697C78.5165 7.17903 78.3679 7.54636 78.3679 7.95879V15.0412C78.3679 15.4923 78.5165 15.8725 78.8136 16.1882C79.1108 16.504 79.4854 16.6587 79.9376 16.6587H90.7445V45.6712C90.7445 46.0901 90.8995 46.451 91.2161 46.7668C91.5326 47.0761 91.8943 47.2372 92.3142 47.2372H103.748Z" fill="#2A2A86"/>
<path fill-rule="evenodd" clip-rule="evenodd" d="M177.943 47.2372C178.395 47.2372 178.77 47.0825 179.067 46.7668C179.364 46.4574 179.512 46.0901 179.512 45.6712V16.6587H190.268C190.72 16.6587 191.101 16.504 191.417 16.1882C191.728 15.8725 191.889 15.4987 191.889 15.0412V7.95879C191.889 7.54636 191.734 7.17903 191.417 6.8697C191.101 6.55392 190.72 6.39926 190.268 6.39926H154.139C153.687 6.39926 153.312 6.55392 153.015 6.8697C152.718 7.17903 152.569 7.54636 152.569 7.95879V15.0412C152.569 15.4923 152.718 15.8725 153.015 16.1882C153.312 16.504 153.687 16.6587 154.139 16.6587H164.946V45.6712C164.946 46.0901 165.101 46.451 165.418 46.7668C165.728 47.0761 166.096 47.2372 166.516 47.2372H177.949H177.943Z" fill="#2A2A86"/>
<path fill-rule="evenodd" clip-rule="evenodd" d="M253.242 32.08L257.596 23.0193L261.95 32.08H253.242ZM252.732 6.39926C252.525 6.39926 252.267 6.48948 251.97 6.66348C251.673 6.83748 251.472 7.03081 251.382 7.23703L232.656 44.8979C232.352 45.4843 232.371 46.0257 232.72 46.509C233.069 46.9988 233.592 47.2372 234.29 47.2372H245.097C245.375 47.2372 245.652 47.147 245.917 46.9794C246.182 46.8054 246.376 46.5992 246.499 46.3543L248.792 41.2504H266.401L268.694 46.3543C268.816 46.5992 269.01 46.8054 269.275 46.9794C269.54 47.1534 269.818 47.2372 270.095 47.2372H280.902C281.6 47.2372 282.123 46.9923 282.472 46.509C282.821 46.0257 282.84 45.4843 282.537 44.8979L263.817 7.23703C263.726 7.03081 263.532 6.83748 263.229 6.66348C262.932 6.48948 262.673 6.39926 262.467 6.39926H252.732Z" fill="#2A2A86"/>
<path fill-rule="evenodd" clip-rule="evenodd" d="M131.13 32.08L135.484 23.0193L139.838 32.08H131.13ZM130.62 6.39926C130.413 6.39926 130.155 6.48948 129.857 6.66348C129.56 6.83748 129.36 7.03081 129.27 7.23703L110.55 44.8979C110.246 45.4843 110.265 46.0257 110.614 46.509C110.963 46.9988 111.486 47.2372 112.184 47.2372H122.991C123.269 47.2372 123.546 47.147 123.805 46.9794C124.07 46.8054 124.263 46.5992 124.386 46.3543L126.679 41.2504H144.288L146.581 46.3543C146.704 46.5992 146.898 46.8054 147.163 46.9794C147.428 47.1534 147.699 47.2372 147.977 47.2372H158.79C159.488 47.2372 160.004 46.9923 160.353 46.509C160.702 46.0257 160.721 45.4843 160.418 44.8979L141.698 7.23703C141.607 7.03081 141.414 6.83748 141.11 6.66348C140.813 6.48948 140.555 6.39926 140.348 6.39926H130.62Z" fill="#2A2A86"/>
<path fill-rule="evenodd" clip-rule="evenodd" d="M274.152 69.7409H282.737V68.104H275.922V54.8738H274.152V69.7409Z" fill="#303030"/>
<path fill-rule="evenodd" clip-rule="evenodd" d="M260.735 68.104C257.241 68.104 254.844 65.3523 254.844 61.9303C254.844 58.5084 257.241 55.7566 260.735 55.7566C264.23 55.7566 266.627 58.5084 266.627 61.9303C266.627 65.3523 264.23 68.104 260.735 68.104ZM260.735 69.7409C265.264 69.7409 268.519 66.4221 268.519 61.9303C268.519 57.4386 265.257 54.1198 260.735 54.1198C256.214 54.1198 252.952 57.4386 252.952 61.9303C252.952 66.4221 256.214 69.7409 260.735 69.7409Z" fill="#303030"/>
<path fill-rule="evenodd" clip-rule="evenodd" d="M240.401 68.104C236.906 68.104 234.509 65.3523 234.509 61.9303C234.509 58.5084 236.906 55.7566 240.401 55.7566C243.895 55.7566 246.292 58.5084 246.292 61.9303C246.292 65.3523 243.895 68.104 240.401 68.104ZM240.401 69.7409C244.922 69.7409 248.184 66.4221 248.184 61.9303C248.184 57.4386 244.922 54.1198 240.401 54.1198C235.879 54.1198 232.617 57.4386 232.617 61.9303C232.617 66.4221 235.879 69.7409 240.401 69.7409Z" fill="#303030"/>
<path fill-rule="evenodd" clip-rule="evenodd" d="M215.492 69.7409H217.262V62.8132H225.221V69.7409H226.984V54.8738H225.221V61.1764H217.262V54.8738H215.492V69.7409Z" fill="#303030"/>
<path fill-rule="evenodd" clip-rule="evenodd" d="M209.866 56.4526C208.606 54.8158 206.623 54.1198 204.608 54.1198C200.19 54.1198 197.031 57.5611 197.031 61.9303C197.031 66.2996 200.338 69.7409 204.608 69.7409C206.985 69.7409 208.923 68.9225 210.247 67.1374L208.923 66.0225C207.87 67.3629 206.417 68.0976 204.608 68.0976C201.262 68.0976 198.924 65.3716 198.924 61.9239C198.924 58.6695 201.281 55.7502 204.608 55.7502C206.042 55.7502 207.45 56.356 208.335 57.5546L209.873 56.4397L209.866 56.4526Z" fill="#303030"/>
<path fill-rule="evenodd" clip-rule="evenodd" d="M191.928 55.8662C190.836 54.5838 189.428 54.1262 187.761 54.1262C185.152 54.1262 182.691 55.5569 182.691 58.4117C182.691 60.8928 184.293 61.8143 186.398 62.5039C189.047 63.3868 190.293 63.7025 190.293 65.5263C190.293 67.2276 188.569 68.1105 187.051 68.1105C185.765 68.1105 184.506 67.5434 183.873 66.4478L182.361 67.6916C183.369 69.1803 185.223 69.7474 186.947 69.7474C189.641 69.7474 192.186 68.3618 192.186 65.4039C192.186 62.4459 190.042 61.7306 187.723 60.9895C185.345 60.2355 184.59 59.6233 184.59 58.2635C184.59 56.4977 186.211 55.7695 187.768 55.7695C188.84 55.7695 189.893 56.1884 190.487 57.1357L191.934 55.8791L191.928 55.8662Z" fill="#303030"/>
<path fill-rule="evenodd" clip-rule="evenodd" d="M164.248 69.7409H172.833V68.104H166.012V54.8738H164.248V69.7409Z" fill="#303030"/>
<path fill-rule="evenodd" clip-rule="evenodd" d="M155.231 64.4501H149.146L152.24 57.1422H152.285L155.231 64.4501ZM146.917 69.7409L148.455 66.087H155.909L157.421 69.7409H159.481L153.144 54.8738H151.478L144.915 69.7409H146.917Z" fill="#303030"/>
<path fill-rule="evenodd" clip-rule="evenodd" d="M132.37 56.5171H134.999C136.601 56.5171 138.203 56.936 138.203 58.7597C138.203 60.8155 136.472 61.1763 134.812 61.1763H132.37V56.5171ZM132.37 62.8132H135.4C137.189 62.8132 138.953 63.4448 138.953 65.5263C138.953 67.4145 137.079 68.1105 135.355 68.1105H132.37V62.8132ZM130.6 69.7409H135.038C137.796 69.7409 140.845 68.858 140.845 65.5843C140.845 63.6317 139.392 62.0979 137.48 61.9303V61.8917C139.082 61.4083 140.089 60.2548 140.089 58.5342C140.089 55.8082 137.602 54.8802 135.148 54.8802H130.6V69.7474V69.7409Z" fill="#303030"/>
<path fill-rule="evenodd" clip-rule="evenodd" d="M117.184 68.104C113.689 68.104 111.293 65.3523 111.293 61.9303C111.293 58.5084 113.689 55.7566 117.184 55.7566C120.678 55.7566 123.075 58.5084 123.075 61.9303C123.075 65.3523 120.678 68.104 117.184 68.104ZM117.184 69.7409C121.712 69.7409 124.967 66.4221 124.967 61.9303C124.967 57.4386 121.705 54.1198 117.184 54.1198C112.662 54.1198 109.4 57.4386 109.4 61.9303C109.4 66.4221 112.662 69.7409 117.184 69.7409Z" fill="#303030"/>
<path fill-rule="evenodd" clip-rule="evenodd" d="M98.3475 69.7409H106.932V68.104H100.117V54.8738H98.3475V69.7409Z" fill="#303030"/>
<path fill-rule="evenodd" clip-rule="evenodd" d="M91.8556 61.0475H86.6556V62.6843H90.0856V67.2405C88.994 67.7883 87.5858 68.104 86.3843 68.104C82.7217 68.104 80.2154 65.4812 80.2154 61.9303C80.2154 58.3795 82.8057 55.7566 86.2163 55.7566C87.7279 55.7566 89.2717 56.3624 90.2794 57.458L91.6036 56.0724C90.189 54.6418 88.2963 54.1198 86.3391 54.1198C81.8755 54.1198 78.3162 57.2453 78.3162 61.9303C78.3162 66.6154 81.6429 69.7409 86.2745 69.7409C88.2124 69.7409 90.1502 69.3027 91.8556 68.3554V61.0475Z" fill="#303030"/>
<path fill-rule="evenodd" clip-rule="evenodd" d="M219.639 47.5272H214.775C214.569 47.5272 214.31 47.437 214.013 47.263C213.716 47.089 213.516 46.8956 213.425 46.6894L194.705 9.02855C194.402 8.44211 194.421 7.90078 194.77 7.41746C195.119 6.93413 195.642 6.68924 196.34 6.68924H207.147C207.424 6.68924 207.696 6.77946 207.96 6.95346C208.225 7.12746 208.419 7.33368 208.542 7.57856L209.692 10.1305L210.835 12.6825H210.913L215.299 21.8528H215.286L219.639 30.9136L223.993 21.8528H223.954L228.321 12.6825H228.437L230.731 7.57856C230.853 7.33368 231.047 7.12746 231.312 6.95346C231.577 6.77946 231.848 6.68924 232.126 6.68924H242.933C243.63 6.68924 244.154 6.93413 244.502 7.41746C244.851 7.90078 244.871 8.44211 244.567 9.02855L225.847 46.6894C225.757 46.8956 225.563 47.089 225.259 47.263C224.962 47.437 224.704 47.5272 224.497 47.5272H219.633H219.639Z" fill="#2A2A86"/>
</svg>
