<svg width="69" height="70" viewBox="0 0 69 70" fill="none" xmlns="http://www.w3.org/2000/svg">
<path fill-rule="evenodd" clip-rule="evenodd" d="M24.23 14.3323C24.23 14.3323 21.3555 26.2866 31.4777 31.0103C29.8369 29.4443 30.2632 26.9761 30.2632 26.9761C30.2632 26.9761 32.4531 28.2005 32.6404 30.4561C35.347 19.636 24.23 14.3323 24.23 14.3323Z" fill="white"/>
<path fill-rule="evenodd" clip-rule="evenodd" d="M13.5716 5.05883C13.5716 5.05883 13.1195 15.402 22.2533 17.6769C20.6449 16.6458 20.5997 14.5385 20.5997 14.5385C20.5997 14.5385 22.6086 15.1958 23.1254 17.0389C23.6099 7.66235 13.5716 5.05883 13.5716 5.05883Z" fill="white"/>
<path fill-rule="evenodd" clip-rule="evenodd" d="M17.6993 16.8327C17.6993 16.8327 17.4086 23.5284 23.3256 25.0041C22.2856 24.3339 22.2533 22.9742 22.2533 22.9742C22.2533 22.9742 23.5517 23.3995 23.8876 24.5917C24.2041 18.5147 17.6993 16.8327 17.6993 16.8327Z" fill="white"/>
<path fill-rule="evenodd" clip-rule="evenodd" d="M10.8651 10.2723C10.8651 10.2723 10.6648 14.8671 14.7214 15.8789C14.0044 15.4214 13.985 14.4869 13.985 14.4869C13.985 14.4869 14.8765 14.7769 15.109 15.5954C15.3286 11.4259 10.8651 10.2723 10.8651 10.2723Z" fill="white"/>
<path fill-rule="evenodd" clip-rule="evenodd" d="M5.74905 15.5438C5.74905 15.5438 8.30705 25.1072 17.2988 24.5724C15.5353 24.089 14.8894 22.1815 14.8894 22.1815C14.8894 22.1815 16.9048 22.2073 17.906 23.7346C15.6581 15.0347 5.74905 15.5438 5.74905 15.5438Z" fill="white"/>
<path fill-rule="evenodd" clip-rule="evenodd" d="M3.11999 20.912C3.11999 20.912 5.29042 24.9719 9.30183 23.7797C8.45562 23.7475 7.95823 22.9548 7.95823 22.9548C7.95823 22.9548 8.8755 22.7551 9.48916 23.3415C7.55128 19.6489 3.11999 20.912 3.11999 20.912Z" fill="white"/>
<path fill-rule="evenodd" clip-rule="evenodd" d="M0.00645975 25.2039C0.00645975 25.2039 4.89638 34.342 13.9269 31.6676C12.0149 31.5967 10.8974 29.8052 10.8974 29.8052C10.8974 29.8052 12.9644 29.3541 14.3468 30.6752C9.98009 22.3426 0 25.2104 0 25.2104L0.00645975 25.2039Z" fill="white"/>
<path fill-rule="evenodd" clip-rule="evenodd" d="M0.684719 32.0607C0.684719 32.0607 3.74011 35.502 7.36395 33.4205C6.53066 33.588 5.86532 32.9243 5.86532 32.9243C5.86532 32.9243 6.71153 32.5183 7.44792 32.9436C4.70259 29.7987 0.691177 32.0607 0.691177 32.0607H0.684719Z" fill="white"/>
<path fill-rule="evenodd" clip-rule="evenodd" d="M10.4516 33.5494C10.4516 33.5494 14.3468 37.9315 18.9589 35.2765C17.8996 35.4891 17.0469 34.6514 17.0469 34.6514C17.0469 34.6514 18.1257 34.1358 19.0623 34.6771C15.5676 30.6687 10.4516 33.5494 10.4516 33.5494Z" fill="white"/>
<path fill-rule="evenodd" clip-rule="evenodd" d="M1.36944 40.1355C1.36944 40.1355 9.98655 45.9161 16.7045 39.33C14.9798 40.1613 13.1518 39.098 13.1518 39.098C13.1518 39.098 14.7667 37.7318 16.6076 38.2537C8.83674 32.9371 1.36944 40.1355 1.36944 40.1355Z" fill="white"/>
<path fill-rule="evenodd" clip-rule="evenodd" d="M26.1226 2.10086C26.1226 2.10086 22.6151 10.2337 29.2232 14.822C28.2478 13.5074 28.855 11.8125 28.855 11.8125C28.855 11.8125 30.2568 12.9467 30.1147 14.5772C33.3639 7.22413 26.1226 2.10731 26.1226 2.10731V2.10086Z" fill="white"/>
<path fill-rule="evenodd" clip-rule="evenodd" d="M21.4071 3.95039C21.4071 3.95039 19.9925 8.32612 23.6357 10.3754C23.0672 9.74388 23.2998 8.83522 23.2998 8.83522C23.2998 8.83522 24.0814 9.35722 24.0879 10.2014C25.4056 6.24459 21.4136 3.95039 21.4136 3.95039H21.4071Z" fill="white"/>
<path fill-rule="evenodd" clip-rule="evenodd" d="M34.1778 0C34.1778 0 30.4441 4.60772 33.8677 8.75789C33.4801 7.73324 34.1778 6.7537 34.1778 6.7537C34.1778 6.7537 34.8754 7.73968 34.4878 8.75789C37.9114 4.60772 34.1778 0 34.1778 0Z" fill="white"/>
<path fill-rule="evenodd" clip-rule="evenodd" d="M34.1778 11.3034C34.1778 11.3034 29.6625 16.8778 33.8031 21.8915C33.3316 20.6606 34.1778 19.4684 34.1778 19.4684C34.1778 19.4684 35.024 20.6606 34.5524 21.8915C38.693 16.8778 34.1778 11.3034 34.1778 11.3034Z" fill="white"/>
<path fill-rule="evenodd" clip-rule="evenodd" d="M44.5067 14.3323C44.5067 14.3323 47.3812 26.2866 37.259 31.0103C38.8997 29.4443 38.4734 26.9761 38.4734 26.9761C38.4734 26.9761 36.2836 28.2005 36.0963 30.4561C33.3897 19.636 44.5067 14.3323 44.5067 14.3323Z" fill="white"/>
<path fill-rule="evenodd" clip-rule="evenodd" d="M55.165 5.05883C55.165 5.05883 55.6107 15.402 46.4768 17.6769C48.0853 16.6458 48.1305 14.5385 48.1305 14.5385C48.1305 14.5385 46.1216 15.1958 45.6048 17.0389C45.1139 7.66235 55.1586 5.05883 55.1586 5.05883H55.165Z" fill="white"/>
<path fill-rule="evenodd" clip-rule="evenodd" d="M51.0373 16.8327C51.0373 16.8327 51.328 23.5284 45.411 25.0041C46.4575 24.3339 46.4833 22.9742 46.4833 22.9742C46.4833 22.9742 45.1849 23.3995 44.849 24.5917C44.5325 18.5147 51.0373 16.8327 51.0373 16.8327Z" fill="white"/>
<path fill-rule="evenodd" clip-rule="evenodd" d="M57.8716 10.2723C57.8716 10.2723 58.0718 14.8671 54.0152 15.8789C54.7322 15.4214 54.7516 14.4869 54.7516 14.4869C54.7516 14.4869 53.8602 14.7769 53.6341 15.5954C53.4145 11.4259 57.8781 10.2723 57.8781 10.2723H57.8716Z" fill="white"/>
<path fill-rule="evenodd" clip-rule="evenodd" d="M62.9876 15.5438C62.9876 15.5438 60.4231 25.1072 51.4378 24.5724C53.2078 24.089 53.8537 22.1815 53.8537 22.1815C53.8537 22.1815 51.8319 22.2073 50.8306 23.7346C53.0786 15.0347 62.9876 15.5438 62.9876 15.5438Z" fill="white"/>
<path fill-rule="evenodd" clip-rule="evenodd" d="M65.6167 20.912C65.6167 20.912 63.4462 24.9719 59.4348 23.7797C60.2875 23.7475 60.7784 22.9548 60.7784 22.9548C60.7784 22.9548 59.8612 22.7551 59.2475 23.3415C61.1854 19.6489 65.6167 20.912 65.6167 20.912Z" fill="white"/>
<path fill-rule="evenodd" clip-rule="evenodd" d="M68.7302 25.2039C68.7302 25.2039 63.8403 34.342 54.8033 31.6676C56.7153 31.5967 57.8328 29.8052 57.8328 29.8052C57.8328 29.8052 55.7658 29.3541 54.3834 30.6752C58.7501 22.3426 68.7302 25.2104 68.7302 25.2104V25.2039Z" fill="white"/>
<path fill-rule="evenodd" clip-rule="evenodd" d="M68.0519 32.0607C68.0519 32.0607 64.9965 35.502 61.3727 33.4205C62.206 33.588 62.8713 32.9243 62.8713 32.9243C62.8713 32.9243 62.0251 32.5183 61.2887 32.9436C64.0341 29.7987 68.0519 32.0607 68.0519 32.0607Z" fill="white"/>
<path fill-rule="evenodd" clip-rule="evenodd" d="M58.2786 33.5494C58.2786 33.5494 54.3834 37.9315 49.7713 35.2765C50.8306 35.4891 51.6833 34.6514 51.6833 34.6514C51.6833 34.6514 50.6045 34.1358 49.6744 34.6771C53.169 30.6687 58.2786 33.5494 58.2786 33.5494Z" fill="white"/>
<path fill-rule="evenodd" clip-rule="evenodd" d="M67.3672 40.1355C67.3672 40.1355 58.7501 45.9161 52.0321 39.33C53.7568 40.1613 55.5849 39.098 55.5849 39.098C55.5849 39.098 53.97 37.7318 52.129 38.2537C59.8999 32.9371 67.3672 40.1355 67.3672 40.1355Z" fill="white"/>
<path fill-rule="evenodd" clip-rule="evenodd" d="M42.614 2.10086C42.614 2.10086 46.1216 10.2337 39.5134 14.822C40.4823 13.5074 39.8816 11.8125 39.8816 11.8125C39.8816 11.8125 38.4799 12.9467 38.622 14.5772C35.3728 7.22413 42.614 2.10731 42.614 2.10731V2.10086Z" fill="white"/>
<path fill-rule="evenodd" clip-rule="evenodd" d="M47.336 3.95039C47.336 3.95039 48.7506 8.32612 45.1074 10.3754C45.6759 9.74388 45.4433 8.83522 45.4433 8.83522C45.4433 8.83522 44.6617 9.35722 44.6552 10.2014C43.3375 6.24459 47.336 3.95039 47.336 3.95039Z" fill="white"/>
<path fill-rule="evenodd" clip-rule="evenodd" d="M24.8824 38.3633C26.1356 37.9702 27.7698 39.6006 28.5321 42.0044C29.2943 44.4081 28.8873 46.683 27.6342 47.0761C26.3746 47.4692 24.7467 45.8388 23.9845 43.4286C23.2223 41.0184 23.6292 38.75 24.8824 38.3569V38.3633ZM20.5222 53.7073C20.5222 53.7073 31.426 54.0424 33.1249 35.5278C33.1249 35.5278 36.0188 43.6864 30.231 69.1738C27.4662 73.382 34.8237 53.1402 20.5222 53.7138V53.7073Z" fill="white"/>
<path fill-rule="evenodd" clip-rule="evenodd" d="M13.5845 26.0675C13.5845 26.0675 18.2484 36.3849 28.2931 34.1229C26.2131 33.9038 25.1279 31.8674 25.1279 31.8674C25.1279 31.8674 27.4146 31.5258 28.8292 33.066C24.6757 23.6637 13.5845 26.061 13.5845 26.061V26.0675Z" fill="white"/>
<path fill-rule="evenodd" clip-rule="evenodd" d="M55.1521 26.0675C55.1521 26.0675 50.4818 36.3849 40.4371 34.1229C42.5171 33.9038 43.6023 31.8674 43.6023 31.8674C43.6023 31.8674 41.3156 31.5258 39.9074 33.066C44.061 23.6637 55.1521 26.061 55.1521 26.061V26.0675Z" fill="white"/>
<path fill-rule="evenodd" clip-rule="evenodd" d="M43.654 40.5222C42.7561 40.2386 41.5869 41.4115 41.0443 43.1321C40.5017 44.8528 40.7924 46.4768 41.6903 46.7603C42.5882 47.0439 43.7574 45.8774 44.3 44.1503C44.8426 42.4297 44.5519 40.8057 43.654 40.5222ZM46.7675 51.5034C46.7675 51.5034 38.9708 51.7482 37.7499 38.4922C37.7499 38.4922 35.6764 44.3243 39.8235 62.5683C41.8001 65.5779 36.5355 51.0974 46.7675 51.5034Z" fill="white"/>
</svg>
